<svg width="50" height="50" viewBox="0 0 50 50" fill="none" xmlns="http://www.w3.org/2000/svg">
<g clip-path="url(#clip0_15_638)">
<path d="M47.5 22.5C46.9847 22.5017 46.4825 22.6627 46.0623 22.9611C45.6422 23.2595 45.3246 23.6806 45.1533 24.1667H40V20.8333H45C45.221 20.8333 45.433 20.7455 45.5893 20.5893C45.7455 20.433 45.8333 20.221 45.8333 20C45.8333 19.779 45.7455 19.567 45.5893 19.4107C45.433 19.2545 45.221 19.1667 45 19.1667H40V15.8333H45.8333C46.7525 15.8333 47.5 15.0858 47.5 14.1667V12.3467C47.986 12.1753 48.4071 11.8578 48.7055 11.4377C49.0039 11.0175 49.165 10.5153 49.1667 10C49.1667 8.62167 48.045 7.5 46.6667 7.5C45.2883 7.5 44.1667 8.62167 44.1667 10C44.1667 11.085 44.8658 12.0017 45.8333 12.3467V14.1667H40V13.3333C40 11.495 38.505 10 36.6667 10H35.8333V4.16667H37.6533C37.8246 4.65269 38.1422 5.0738 38.5623 5.3722C38.9825 5.6706 39.4847 5.83168 40 5.83333C41.3783 5.83333 42.5 4.71167 42.5 3.33333C42.5 1.955 41.3783 0.833333 40 0.833333C39.4847 0.834985 38.9825 0.996063 38.5623 1.29447C38.1422 1.59287 37.8246 2.01397 37.6533 2.5H35.8333C34.9142 2.5 34.1667 3.2475 34.1667 4.16667V10H30.8333V5C30.8333 4.77899 30.7455 4.56702 30.5893 4.41074C30.433 4.25446 30.221 4.16667 30 4.16667C29.779 4.16667 29.567 4.25446 29.4107 4.41074C29.2545 4.56702 29.1667 4.77899 29.1667 5V10H25.8333V4.84667C26.3194 4.67535 26.7405 4.35783 27.0389 3.93768C27.3373 3.51753 27.4983 3.01533 27.5 2.5C27.5 1.12167 26.3783 0 25 0C23.6217 0 22.5 1.12167 22.5 2.5C22.5 3.585 23.1992 4.50167 24.1667 4.84667V10H20.8333V5C20.8333 4.77899 20.7455 4.56702 20.5893 4.41074C20.433 4.25446 20.221 4.16667 20 4.16667C19.779 4.16667 19.567 4.25446 19.4107 4.41074C19.2545 4.56702 19.1667 4.77899 19.1667 5V10H15.8333V4.16667C15.8333 3.2475 15.0858 2.5 14.1667 2.5H12.3467C12.1753 2.01397 11.8578 1.59287 11.4377 1.29447C11.0175 0.996063 10.5153 0.834985 10 0.833333C8.62167 0.833333 7.5 1.955 7.5 3.33333C7.5 4.71167 8.62167 5.83333 10 5.83333C10.5153 5.83168 11.0175 5.6706 11.4377 5.3722C11.8578 5.0738 12.1753 4.65269 12.3467 4.16667H14.1667V10H13.3333C11.495 10 10 11.495 10 13.3333V14.1667H4.16667V12.3467C4.65269 12.1753 5.0738 11.8578 5.3722 11.4377C5.6706 11.0175 5.83168 10.5153 5.83333 10C5.83333 8.62167 4.71167 7.5 3.33333 7.5C1.955 7.5 0.833333 8.62167 0.833333 10C0.833333 11.085 1.5325 12.0017 2.5 12.3467V14.1667C2.5 15.0858 3.2475 15.8333 4.16667 15.8333H10V19.1667H5C4.77899 19.1667 4.56702 19.2545 4.41074 19.4107C4.25446 19.567 4.16667 19.779 4.16667 20C4.16667 20.221 4.25446 20.433 4.41074 20.5893C4.56702 20.7455 4.77899 20.8333 5 20.8333H10V24.1667H4.84667C4.67535 23.6806 4.35783 23.2595 3.93768 22.9611C3.51753 22.6627 3.01533 22.5017 2.5 22.5C1.12167 22.5 0 23.6217 0 25C0 26.3783 1.12167 27.5 2.5 27.5C3.01533 27.4983 3.51753 27.3373 3.93768 27.0389C4.35783 26.7405 4.67535 26.3194 4.84667 25.8333H10V29.1667H5C4.77899 29.1667 4.56702 29.2545 4.41074 29.4107C4.25446 29.567 4.16667 29.779 4.16667 30C4.16667 30.221 4.25446 30.433 4.41074 30.5893C4.56702 30.7455 4.77899 30.8333 5 30.8333H10V34.1667H4.16667C3.2475 34.1667 2.5 34.9142 2.5 35.8333V37.6533C2.01397 37.8246 1.59287 38.1422 1.29447 38.5623C0.996063 38.9825 0.834985 39.4847 0.833333 40C0.833333 41.3783 1.955 42.5 3.33333 42.5C4.71167 42.5 5.83333 41.3783 5.83333 40C5.83168 39.4847 5.6706 38.9825 5.3722 38.5623C5.0738 38.1422 4.65269 37.8246 4.16667 37.6533V35.8333H10V36.6667C10 38.505 11.495 40 13.3333 40H14.1667V45.8333H12.3467C12.1753 45.3473 11.8578 44.9262 11.4377 44.6278C11.0175 44.3294 10.5153 44.1683 10 44.1667C8.62167 44.1667 7.5 45.2883 7.5 46.6667C7.5 48.045 8.62167 49.1667 10 49.1667C10.5153 49.165 11.0175 49.0039 11.4377 48.7055C11.8578 48.4071 12.1753 47.986 12.3467 47.5H14.1667C15.0858 47.5 15.8333 46.7525 15.8333 45.8333V40H19.1667V45C19.1667 45.221 19.2545 45.433 19.4107 45.5893C19.567 45.7455 19.779 45.8333 20 45.8333C20.221 45.8333 20.433 45.7455 20.5893 45.5893C20.7455 45.433 20.8333 45.221 20.8333 45V40H24.1667V45.1533C23.6806 45.3246 23.2595 45.6422 22.9611 46.0623C22.6627 46.4825 22.5017 46.9847 22.5 47.5C22.5 48.8783 23.6217 50 25 50C26.3783 50 27.5 48.8783 27.5 47.5C27.4983 46.9847 27.3373 46.4825 27.0389 46.0623C26.7405 45.6422 26.3194 45.3246 25.8333 45.1533V40H29.1667V45C29.1667 45.221 29.2545 45.433 29.4107 45.5893C29.567 45.7455 29.779 45.8333 30 45.8333C30.221 45.8333 30.433 45.7455 30.5893 45.5893C30.7455 45.433 30.8333 45.221 30.8333 45V40H34.1667V45.8333C34.1667 46.7525 34.9142 47.5 35.8333 47.5H37.6533C37.8246 47.986 38.1422 48.4071 38.5623 48.7055C38.9825 49.0039 39.4847 49.165 40 49.1667C41.3783 49.1667 42.5 48.045 42.5 46.6667C42.5 45.2883 41.3783 44.1667 40 44.1667C39.4847 44.1683 38.9825 44.3294 38.5623 44.6278C38.1422 44.9262 37.8246 45.3473 37.6533 45.8333H35.8333V40H36.6667C38.505 40 40 38.505 40 36.6667V35.8333H45.8333V37.6533C45.3473 37.8246 44.9262 38.1422 44.6278 38.5623C44.3294 38.9825 44.1683 39.4847 44.1667 40C44.1667 41.3783 45.2883 42.5 46.6667 42.5C48.045 42.5 49.1667 41.3783 49.1667 40C49.165 39.4847 49.0039 38.9825 48.7055 38.5623C48.4071 38.1422 47.986 37.8246 47.5 37.6533V35.8333C47.5 34.9142 46.7525 34.1667 45.8333 34.1667H40V30.8333H45C45.221 30.8333 45.433 30.7455 45.5893 30.5893C45.7455 30.433 45.8333 30.221 45.8333 30C45.8333 29.779 45.7455 29.567 45.5893 29.4107C45.433 29.2545 45.221 29.1667 45 29.1667H40V25.8333H45.1533C45.3246 26.3194 45.6422 26.7405 46.0623 27.0389C46.4825 27.3373 46.9847 27.4983 47.5 27.5C48.8783 27.5 50 26.3783 50 25C50 23.6217 48.8783 22.5 47.5 22.5ZM46.6667 9.16667C46.8877 9.16667 47.0996 9.25446 47.2559 9.41074C47.4122 9.56702 47.5 9.77899 47.5 10C47.5 10.221 47.4122 10.433 47.2559 10.5893C47.0996 10.7455 46.8877 10.8333 46.6667 10.8333C46.4457 10.8333 46.2337 10.7455 46.0774 10.5893C45.9211 10.433 45.8333 10.221 45.8333 10C45.8333 9.77899 45.9211 9.56702 46.0774 9.41074C46.2337 9.25446 46.4457 9.16667 46.6667 9.16667ZM40 2.5C40.221 2.5 40.433 2.5878 40.5893 2.74408C40.7455 2.90036 40.8333 3.11232 40.8333 3.33333C40.8333 3.55435 40.7455 3.76631 40.5893 3.92259C40.433 4.07887 40.221 4.16667 40 4.16667C39.779 4.16667 39.567 4.07887 39.4107 3.92259C39.2545 3.76631 39.1667 3.55435 39.1667 3.33333C39.1667 3.11232 39.2545 2.90036 39.4107 2.74408C39.567 2.5878 39.779 2.5 40 2.5ZM25 1.66667C25.221 1.66667 25.433 1.75446 25.5893 1.91074C25.7455 2.06702 25.8333 2.27899 25.8333 2.5C25.8333 2.72101 25.7455 2.93298 25.5893 3.08926C25.433 3.24554 25.221 3.33333 25 3.33333C24.779 3.33333 24.567 3.24554 24.4107 3.08926C24.2545 2.93298 24.1667 2.72101 24.1667 2.5C24.1667 2.27899 24.2545 2.06702 24.4107 1.91074C24.567 1.75446 24.779 1.66667 25 1.66667ZM10 4.16667C9.77899 4.16667 9.56702 4.07887 9.41074 3.92259C9.25446 3.76631 9.16667 3.55435 9.16667 3.33333C9.16667 3.11232 9.25446 2.90036 9.41074 2.74408C9.56702 2.5878 9.77899 2.5 10 2.5C10.221 2.5 10.433 2.5878 10.5893 2.74408C10.7455 2.90036 10.8333 3.11232 10.8333 3.33333C10.8333 3.55435 10.7455 3.76631 10.5893 3.92259C10.433 4.07887 10.221 4.16667 10 4.16667ZM3.33333 9.16667C3.55435 9.16667 3.76631 9.25446 3.92259 9.41074C4.07887 9.56702 4.16667 9.77899 4.16667 10C4.16667 10.221 4.07887 10.433 3.92259 10.5893C3.76631 10.7455 3.55435 10.8333 3.33333 10.8333C3.11232 10.8333 2.90036 10.7455 2.74408 10.5893C2.5878 10.433 2.5 10.221 2.5 10C2.5 9.77899 2.5878 9.56702 2.74408 9.41074C2.90036 9.25446 3.11232 9.16667 3.33333 9.16667ZM2.5 25.8333C2.27899 25.8333 2.06702 25.7455 1.91074 25.5893C1.75446 25.433 1.66667 25.221 1.66667 25C1.66667 24.779 1.75446 24.567 1.91074 24.4107C2.06702 24.2545 2.27899 24.1667 2.5 24.1667C2.72101 24.1667 2.93298 24.2545 3.08926 24.4107C3.24554 24.567 3.33333 24.779 3.33333 25C3.33333 25.221 3.24554 25.433 3.08926 25.5893C2.93298 25.7455 2.72101 25.8333 2.5 25.8333ZM3.33333 40.8333C3.11232 40.8333 2.90036 40.7455 2.74408 40.5893C2.5878 40.433 2.5 40.221 2.5 40C2.5 39.779 2.5878 39.567 2.74408 39.4107C2.90036 39.2545 3.11232 39.1667 3.33333 39.1667C3.55435 39.1667 3.76631 39.2545 3.92259 39.4107C4.07887 39.567 4.16667 39.779 4.16667 40C4.16667 40.221 4.07887 40.433 3.92259 40.5893C3.76631 40.7455 3.55435 40.8333 3.33333 40.8333ZM10 47.5C9.77899 47.5 9.56702 47.4122 9.41074 47.2559C9.25446 47.0996 9.16667 46.8877 9.16667 46.6667C9.16667 46.4457 9.25446 46.2337 9.41074 46.0774C9.56702 45.9211 9.77899 45.8333 10 45.8333C10.221 45.8333 10.433 45.9211 10.5893 46.0774C10.7455 46.2337 10.8333 46.4457 10.8333 46.6667C10.8333 46.8877 10.7455 47.0996 10.5893 47.2559C10.433 47.4122 10.221 47.5 10 47.5ZM25 48.3333C24.779 48.3333 24.567 48.2455 24.4107 48.0893C24.2545 47.933 24.1667 47.721 24.1667 47.5C24.1667 47.279 24.2545 47.067 24.4107 46.9107C24.567 46.7545 24.779 46.6667 25 46.6667C25.221 46.6667 25.433 46.7545 25.5893 46.9107C25.7455 47.067 25.8333 47.279 25.8333 47.5C25.8333 47.721 25.7455 47.933 25.5893 48.0893C25.433 48.2455 25.221 48.3333 25 48.3333ZM40 45.8333C40.221 45.8333 40.433 45.9211 40.5893 46.0774C40.7455 46.2337 40.8333 46.4457 40.8333 46.6667C40.8333 46.8877 40.7455 47.0996 40.5893 47.2559C40.433 47.4122 40.221 47.5 40 47.5C39.779 47.5 39.567 47.4122 39.4107 47.2559C39.2545 47.0996 39.1667 46.8877 39.1667 46.6667C39.1667 46.4457 39.2545 46.2337 39.4107 46.0774C39.567 45.9211 39.779 45.8333 40 45.8333ZM46.6667 40.8333C46.4457 40.8333 46.2337 40.7455 46.0774 40.5893C45.9211 40.433 45.8333 40.221 45.8333 40C45.8333 39.779 45.9211 39.567 46.0774 39.4107C46.2337 39.2545 46.4457 39.1667 46.6667 39.1667C46.8877 39.1667 47.0996 39.2545 47.2559 39.4107C47.4122 39.567 47.5 39.779 47.5 40C47.5 40.221 47.4122 40.433 47.2559 40.5893C47.0996 40.7455 46.8877 40.8333 46.6667 40.8333ZM38.3333 36.6667C38.3333 37.5858 37.5858 38.3333 36.6667 38.3333H13.3333C12.4142 38.3333 11.6667 37.5858 11.6667 36.6667V13.3333C11.6667 12.4142 12.4142 11.6667 13.3333 11.6667H36.6667C37.5858 11.6667 38.3333 12.4142 38.3333 13.3333V36.6667ZM47.5 25.8333C47.279 25.8333 47.067 25.7455 46.9107 25.5893C46.7545 25.433 46.6667 25.221 46.6667 25C46.6667 24.779 46.7545 24.567 46.9107 24.4107C47.067 24.2545 47.279 24.1667 47.5 24.1667C47.721 24.1667 47.933 24.2545 48.0893 24.4107C48.2455 24.567 48.3333 24.779 48.3333 25C48.3333 25.221 48.2455 25.433 48.0893 25.5893C47.933 25.7455 47.721 25.8333 47.5 25.8333Z" fill="#FAFBFB"/>
<path d="M21.2592 18.5083C21.1267 17.915 20.6092 17.5 20 17.5C19.3908 17.5 18.8733 17.915 18.74 18.51L15.8525 31.4858C15.8048 31.7016 15.8447 31.9275 15.9635 32.1139C16.0822 32.3003 16.2701 32.432 16.4858 32.48C16.7016 32.5268 16.927 32.4864 17.1132 32.3678C17.2994 32.2492 17.4312 32.0619 17.48 31.8467L18.4475 27.4992H21.5517L22.5192 31.8467C22.567 32.0626 22.6987 32.2507 22.8852 32.3695C23.0717 32.4884 23.2978 32.5283 23.5137 32.4804C23.7297 32.4326 23.9177 32.3009 24.0366 32.1144C24.1555 31.9279 24.1953 31.7018 24.1475 31.4858L21.2592 18.5083ZM18.8192 25.8333L20.0008 20.5233L21.1825 25.8333H18.8192ZM31.6667 19.1667C31.8877 19.1667 32.0996 19.0789 32.2559 18.9226C32.4122 18.7663 32.5 18.5543 32.5 18.3333C32.5 18.1123 32.4122 17.9004 32.2559 17.7441C32.0996 17.5878 31.8877 17.5 31.6667 17.5H26.6667C26.4456 17.5 26.2337 17.5878 26.0774 17.7441C25.9211 17.9004 25.8333 18.1123 25.8333 18.3333C25.8333 18.5543 25.9211 18.7663 26.0774 18.9226C26.2337 19.0789 26.4456 19.1667 26.6667 19.1667H28.3333V30.8333H26.6667C26.4456 30.8333 26.2337 30.9211 26.0774 31.0774C25.9211 31.2337 25.8333 31.4457 25.8333 31.6667C25.8333 31.8877 25.9211 32.0996 26.0774 32.2559C26.2337 32.4122 26.4456 32.5 26.6667 32.5H31.6667C31.8877 32.5 32.0996 32.4122 32.2559 32.2559C32.4122 32.0996 32.5 31.8877 32.5 31.6667C32.5 31.4457 32.4122 31.2337 32.2559 31.0774C32.0996 30.9211 31.8877 30.8333 31.6667 30.8333H30V19.1667H31.6667Z" fill="#FAFBFB"/>
</g>
<defs>
<clipPath id="clip0_15_638">
<rect width="50" height="50" fill="white"/>
</clipPath>
</defs>
</svg>
