<svg width="50" height="50" viewBox="0 0 50 50" fill="none" xmlns="http://www.w3.org/2000/svg">
<g clip-path="url(#clip0_15_655)">
<path fill-rule="evenodd" clip-rule="evenodd" d="M21.9695 39.6057V33.473C21.9695 33.0378 21.6154 32.6836 21.1801 32.6836C20.7443 32.6836 20.3906 33.0378 20.3906 33.473V39.6057C20.3906 40.0415 20.7443 40.3951 21.1801 40.3951C21.6153 40.3952 21.9695 40.0415 21.9695 39.6057ZM16.1958 33.4731V39.6058C16.1958 40.0416 16.5495 40.3952 16.9853 40.3952C17.421 40.3952 17.7747 40.0415 17.7747 39.6058V33.4731C17.7747 33.0379 17.421 32.6837 16.9853 32.6837C16.5495 32.6836 16.1958 33.0378 16.1958 33.4731Z" fill="#FAFBFB"/>
<path fill-rule="evenodd" clip-rule="evenodd" d="M13.919 40.3953H24.2459C24.6817 40.3953 25.0353 40.0416 25.0353 39.6059C25.0353 39.17 24.6816 38.8164 24.2459 38.8164H13.919C13.4833 38.8164 13.1296 39.1701 13.1296 39.6059C13.1295 40.0416 13.4832 40.3953 13.919 40.3953ZM32.5269 32.6837H2.46481C2.01899 32.6837 1.65746 32.3226 1.65746 31.8768V7.70261C1.65746 7.25679 2.01907 6.89576 2.46481 6.89576H10.2348C10.6705 6.89576 11.0242 6.54207 11.0242 6.10633C11.0242 5.67058 10.6705 5.31689 10.2348 5.31689H2.46481C1.14691 5.31681 0.0784302 6.38472 0.0784302 7.70261V31.8768C0.0784302 33.1947 1.14683 34.2626 2.46473 34.2626H32.5268C32.9626 34.2626 33.3162 33.9089 33.3162 33.4732C33.3163 33.0378 32.9626 32.6837 32.5269 32.6837ZM36.5074 17.1616V24.399C36.5074 24.8343 36.8611 25.1884 37.2968 25.1884C37.7327 25.1884 38.0863 24.8343 38.0863 24.399V17.1616C38.0863 16.7258 37.7326 16.3722 37.2968 16.3722C36.8611 16.3721 36.5074 16.7258 36.5074 17.1616Z" fill="#FAFBFB"/>
<path fill-rule="evenodd" clip-rule="evenodd" d="M32.3806 26.3401H0.867954C0.432123 26.3401 0.0785217 26.6933 0.0785217 27.1295V31.8769C0.0787033 32.5098 0.330096 33.1167 0.777469 33.5643C0.999072 33.7858 1.26215 33.9615 1.55166 34.0814C1.84118 34.2012 2.15147 34.2628 2.46482 34.2627H32.5269C32.9627 34.2627 33.3163 33.909 33.3163 33.4733C33.3163 33.038 32.9626 32.6839 32.5269 32.6839H2.46482C2.35883 32.6839 2.25387 32.6631 2.15593 32.6226C2.05799 32.5821 1.96899 32.5226 1.89402 32.4477C1.81905 32.3728 1.75957 32.2839 1.71898 32.1859C1.67839 32.088 1.65749 31.9831 1.65747 31.8771V27.9192H32.3806C32.8164 27.9192 33.17 27.5655 33.17 27.1298C33.17 26.694 32.8164 26.3401 32.3806 26.3401Z" fill="#FAFBFB"/>
<path fill-rule="evenodd" clip-rule="evenodd" d="M37.2969 23.6095C33.6648 23.6095 30.7164 26.5579 30.7164 30.1901C30.7164 33.8222 33.6648 36.7706 37.2969 36.7706C40.929 36.7706 43.878 33.8222 43.878 30.1901C43.878 26.5579 40.929 23.6095 37.2969 23.6095ZM37.2969 25.1884C40.0575 25.1884 42.299 27.4295 42.299 30.1901C42.299 32.9506 40.0575 35.1917 37.2969 35.1917C34.5364 35.1917 32.2953 32.9506 32.2953 30.1901C32.2953 27.4295 34.5364 25.1884 37.2969 25.1884ZM27.0426 50C31.8079 50 42.7885 50 47.5542 49.9842C48.3663 49.9842 49.1236 49.5652 49.5579 48.8758C49.7713 48.5364 49.8951 48.1485 49.9177 47.7482C49.9403 47.348 49.8611 46.9486 49.6874 46.5873C49.6869 46.5863 49.6869 46.5858 49.6863 46.5847C47.4569 41.9879 42.7442 38.8163 37.2969 38.8163C31.8505 38.8163 27.1389 41.9868 24.8942 46.5752C24.8931 46.5768 24.8926 46.5783 24.8916 46.5799C24.7168 46.9437 24.6372 47.3459 24.6602 47.7488C24.6831 48.1518 24.8078 48.5423 25.0227 48.8839C25.2376 49.2256 25.5356 49.5071 25.8888 49.7023C26.2421 49.8975 26.6391 49.9999 27.0426 50ZM27.0426 48.4211H27.0422C26.9057 48.421 26.7714 48.3863 26.652 48.3204C26.5325 48.2544 26.4317 48.1592 26.359 48.0437C26.2865 47.9283 26.2444 47.7965 26.2365 47.6605C26.2287 47.5245 26.2554 47.3887 26.3142 47.2658C28.3027 43.2037 32.4742 40.3953 37.2969 40.3953C42.119 40.3953 46.2905 43.2032 48.2648 47.2722C48.3226 47.3927 48.3489 47.526 48.3412 47.6595C48.3336 47.793 48.2922 47.9224 48.221 48.0356C48.1497 48.1488 48.051 48.2421 47.9339 48.3067C47.8169 48.3714 47.6854 48.4053 47.5516 48.4054H47.549C42.7848 48.4211 31.8069 48.4211 27.0426 48.4211ZM20.7984 8.85003V2.3858C20.7984 1.93998 21.16 1.57895 21.6058 1.57895H39.1542C39.3681 1.57921 39.5733 1.66416 39.7248 1.81523C39.7997 1.89015 39.8591 1.97911 39.8997 2.07701C39.9402 2.17491 39.9611 2.27984 39.961 2.3858V12.6795C39.9611 12.8935 39.8761 13.0987 39.7248 13.25C39.5733 13.4012 39.3681 13.4861 39.1542 13.4863H27.5142C27.079 13.4863 26.7248 13.84 26.7248 14.2757C26.7248 14.7115 27.079 15.0652 27.5142 15.0652H39.1542C39.7868 15.0652 40.3937 14.8136 40.841 14.3662C41.2884 13.9188 41.54 13.312 41.54 12.6794V2.38572C41.5399 1.753 41.2885 1.14623 40.841 0.698865C40.3937 0.251471 39.787 8.63427e-05 39.1543 0L21.6059 0C20.288 0 19.2196 1.0684 19.2196 2.3858V8.85003C19.2196 9.28578 19.5738 9.63946 20.009 9.63946C20.4448 9.63946 20.7984 9.28578 20.7984 8.85003Z" fill="#FAFBFB"/>
<path fill-rule="evenodd" clip-rule="evenodd" d="M35.478 3.67357H28.6933C28.2574 3.67357 27.9038 4.02725 27.9038 4.463C27.9038 4.89875 28.2575 5.25243 28.6933 5.25243H35.478C35.9132 5.25243 36.2674 4.89875 36.2674 4.463C36.2674 4.02725 35.9132 3.67357 35.478 3.67357ZM35.478 6.74304H29.9979C29.5621 6.74304 29.2085 7.09673 29.2085 7.53248C29.2085 7.96822 29.5622 8.32191 29.9979 8.32191H35.4779C35.9132 8.32191 36.2673 7.96822 36.2673 7.53248C36.2674 7.09673 35.9132 6.74304 35.478 6.74304ZM35.478 9.81252H31.5148C31.079 9.81252 30.7254 10.1662 30.7254 10.602C30.7254 11.0378 31.0791 11.3914 31.5148 11.3914H35.478C35.9132 11.3914 36.2674 11.0377 36.2674 10.602C36.2674 10.1662 35.9132 9.81252 35.478 9.81252ZM13.5811 2.48364C11.2732 2.48364 9.39956 4.35733 9.39956 6.66519C9.39956 8.97305 11.2732 10.8473 13.5811 10.8473C15.8896 10.8473 17.7632 8.97314 17.7632 6.66519C17.7632 4.35724 15.8896 2.48364 13.5811 2.48364ZM13.5811 4.06259C15.018 4.06259 16.1843 5.22891 16.1843 6.66519C16.1843 8.10205 15.018 9.26837 13.5811 9.26837C12.1448 9.26837 10.9785 8.10205 10.9785 6.66519C10.9785 5.22891 12.1448 4.06259 13.5811 4.06259ZM19.5332 12.2194H11.1695C8.89801 12.2194 6.95853 13.8583 6.57958 16.0983C6.27822 17.8826 5.97646 19.6668 5.67432 21.451C5.62943 21.7168 5.64305 21.9892 5.71424 22.2492C5.78542 22.5092 5.91245 22.7506 6.08647 22.9565C6.26049 23.1624 6.47732 23.3278 6.72184 23.4413C6.96636 23.5548 7.23269 23.6136 7.50226 23.6136H16.1607C17.1843 23.6136 18.0144 22.7837 18.0144 21.7599V17.4747H19.9959C21.055 17.4746 22.0731 17.0652 22.8375 16.3321C23.4728 15.722 24.3149 14.9147 25.0138 14.2441C25.5165 13.7615 25.807 13.0992 25.8218 12.4026C25.8289 12.0539 25.7667 11.7074 25.6385 11.3831C25.5104 11.0588 25.319 10.7632 25.0755 10.5136C24.5944 10.0198 23.9384 9.73513 23.2492 9.72096C22.5525 9.70644 21.8785 9.96922 21.3755 10.4515L19.5332 12.2194ZM19.8506 13.7983C20.0543 13.7983 20.25 13.7194 20.3969 13.5783C20.3969 13.5783 21.5153 12.5057 22.4685 11.5909C22.6693 11.3985 22.9383 11.2936 23.2164 11.2993C23.4913 11.3051 23.7529 11.4187 23.9448 11.6156L23.9574 11.6282C24.147 11.8295 24.2495 12.0975 24.2426 12.374C24.2357 12.6504 24.12 12.913 23.9206 13.1046L21.7442 15.1925C21.2739 15.6436 20.6475 15.8955 19.9958 15.8957H17.2248C16.789 15.8957 16.4353 16.2488 16.4353 16.6851V21.7598C16.4353 21.8327 16.4063 21.9026 16.3548 21.9541C16.3033 22.0056 16.2334 22.0346 16.1606 22.0346H7.50218C7.46223 22.0345 7.42277 22.0257 7.38652 22.0089C7.35027 21.9921 7.31808 21.9677 7.29215 21.9373C7.26646 21.9067 7.24769 21.8709 7.23715 21.8324C7.2266 21.7939 7.22452 21.7535 7.23106 21.7141C7.45793 20.3752 7.82738 18.1904 8.13632 16.3615C8.38689 14.8815 9.66845 13.7983 11.1695 13.7983H19.8506Z" fill="#FAFBFB"/>
<path fill-rule="evenodd" clip-rule="evenodd" d="M10.5484 22.9557L11.3863 18.0015C11.459 17.5715 11.169 17.1641 10.7395 17.0915C10.31 17.0184 9.90208 17.3083 9.82951 17.7379L8.99162 22.6926C8.91897 23.1221 9.209 23.53 9.63847 23.6025C10.0679 23.6752 10.4759 23.3857 10.5484 22.9557ZM25.3495 11.4452L27.0027 6.93728C27.1527 6.52779 26.9422 6.07413 26.5333 5.92412C26.1238 5.77411 25.6701 5.98463 25.5201 6.39363L23.8669 10.9015C23.7169 11.311 23.9274 11.7647 24.3363 11.9147C24.7458 12.0646 25.1995 11.8541 25.3495 11.4452ZM17.9884 31.0909H20.1763C20.6121 31.0909 20.9658 30.7372 20.9658 30.3015C20.9658 29.8657 20.6121 29.5121 20.1763 29.5121H17.9884C17.5527 29.5121 17.199 29.8657 17.199 30.3015C17.199 30.7372 17.5527 31.0909 17.9884 31.0909Z" fill="#FAFBFB"/>
</g>
<defs>
<clipPath id="clip0_15_655">
<rect width="50" height="50" fill="white"/>
</clipPath>
</defs>
</svg>
