<svg width="50" height="50" viewBox="0 0 50 50" fill="none" xmlns="http://www.w3.org/2000/svg">
<path d="M11.1921 48.0567C10.6443 48.0567 10.1004 47.8855 9.63612 47.5492C9.2139 47.2429 8.89083 46.8191 8.7071 46.3303C8.52337 45.8416 8.48709 45.3095 8.60277 44.8002L11.8192 30.6036L0.911142 21.0185C0.518831 20.6755 0.235829 20.2245 0.0973445 19.7216C-0.04114 19.2187 -0.0289937 18.6861 0.132272 18.1901C0.292548 17.6943 0.594519 17.2566 1.00075 16.9311C1.40697 16.6057 1.89959 16.4069 2.41752 16.3593L16.8501 15.0463L22.5564 1.666C22.977 0.682929 23.9352 0.0480957 24.9999 0.0480957C26.0646 0.0480957 27.0227 0.682929 27.4435 1.66375L33.1496 15.0463L47.5799 16.3592C48.6426 16.455 49.5383 17.1756 49.8674 18.19C50.1967 19.2045 49.8922 20.3171 49.0904 21.0184L38.1824 30.6017L41.3989 44.798C41.6346 45.8418 41.2302 46.9213 40.3659 47.5473C39.5035 48.1733 38.3533 48.2215 37.4452 47.6745L24.9999 40.2225L12.5546 47.6787C12.1339 47.9291 11.665 48.0567 11.1921 48.0567ZM24.9999 37.0123C25.4729 37.0123 25.9412 37.1395 26.3624 37.3899L38.1077 44.4288L35.0721 31.0294C34.9658 30.5611 34.988 30.0727 35.1362 29.6159C35.2843 29.1591 35.5531 28.7511 35.9139 28.4349L46.2135 19.384L32.5869 18.1442C32.1074 18.1012 31.6485 17.9283 31.2596 17.644C30.8706 17.3597 30.5661 16.9748 30.3787 16.5304L24.9999 3.90358L19.6146 16.5322C19.2354 17.432 18.3916 18.0501 17.4128 18.1399L3.78425 19.3798L14.0836 28.4307C14.8212 29.0778 15.1439 30.0716 14.9253 31.0275L11.8921 44.4265L23.6373 37.3899C24.0581 37.1395 24.5269 37.0123 24.9999 37.0123ZM16.7399 15.305C16.7399 15.305 16.7399 15.3073 16.7376 15.3092L16.7399 15.305ZM33.2557 15.2989L33.258 15.3031C33.258 15.3008 33.258 15.3008 33.2556 15.2989H33.2557Z" fill="#FAFBFB"/>
</svg>
