<svg width="50" height="50" viewBox="0 0 50 50" fill="none" xmlns="http://www.w3.org/2000/svg">
<path d="M34.3437 26.8063C35.1047 26.5344 35.6156 25.8079 35.6156 25C35.6156 24.1922 35.1047 23.4657 34.3469 23.1938L30.8625 21.9375C29.1673 21.3294 27.6278 20.3536 26.3543 19.0801C25.0808 17.8066 24.105 16.2671 23.4969 14.5719L22.2406 11.0875C22.1062 10.7168 21.8612 10.3964 21.5387 10.1695C21.2162 9.94254 20.8318 9.82014 20.4375 9.81879C19.6312 9.81879 18.9047 10.3282 18.6297 11.0875L17.375 14.5719C16.767 16.2674 15.791 17.8072 14.5172 19.0807C13.2434 20.3543 11.7034 21.3299 10.0078 21.9375L6.52656 23.1938C5.76562 23.4672 5.25468 24.1922 5.25468 25C5.25468 25.8079 5.76562 26.5329 6.52343 26.8063L10.0078 28.0625C11.7031 28.6705 13.2427 29.6462 14.5162 30.9197C15.7897 32.1932 16.7655 33.7329 17.3734 35.4282L18.6297 38.9141C18.9031 39.6719 19.6297 40.1813 20.4359 40.1813C21.2422 40.1813 21.9687 39.6703 22.2406 38.9125L23.4969 35.4282C24.105 33.733 25.0808 32.1934 26.3543 30.92C27.6278 29.6465 29.1673 28.6707 30.8625 28.0625L34.3437 26.8063ZM29.8031 25.1219C27.6748 25.8851 25.7419 27.1101 24.1432 28.7088C22.5444 30.3076 21.3194 32.2405 20.5562 34.3688L20.4344 34.7063L20.3125 34.3688C19.5488 32.2408 18.3237 30.3081 16.725 28.7094C15.1263 27.1107 13.1936 25.8856 11.0656 25.1219L10.7297 25L11.0672 24.8782C13.1955 24.115 15.1284 22.89 16.7271 21.2912C18.3259 19.6925 19.5509 17.7596 20.3141 15.6313L20.4359 15.2938L20.5578 15.6313C21.3209 17.7594 22.5457 19.6921 24.1442 21.2909C25.7426 22.8896 27.6752 24.1147 29.8031 24.8782L30.1406 25L29.8031 25.1219ZM28.9812 11.661L30.7453 12.2969C31.4969 12.5666 32.1794 12.9992 32.744 13.5638C33.3086 14.1284 33.7413 14.811 34.0109 15.5625L34.6453 17.325C34.8937 18.0157 35.5531 18.4797 36.2859 18.4797C37.0187 18.4797 37.6797 18.0157 37.9266 17.3266L38.5625 15.5625C38.8319 14.8108 39.2644 14.1281 39.8291 13.5635C40.3937 12.9988 41.0764 12.5663 41.8281 12.2969L43.5937 11.661C44.2797 11.4125 44.7437 10.7547 44.7453 10.025C44.7469 9.29535 44.2875 8.63442 43.5937 8.38129L41.8281 7.74535C41.0767 7.4755 40.3942 7.04278 39.8296 6.47821C39.2651 5.91363 38.8323 5.23117 38.5625 4.47973L37.9266 2.71567C37.804 2.37924 37.5809 2.08865 37.2875 1.88333C36.9942 1.678 36.6448 1.56787 36.2867 1.56787C35.9286 1.56787 35.5792 1.678 35.2859 1.88333C34.9926 2.08865 34.7695 2.37924 34.6469 2.71567L34.0109 4.47973C33.7413 5.23128 33.3086 5.91384 32.744 6.47844C32.1794 7.04304 31.4969 7.47569 30.7453 7.74535L28.9766 8.38285C28.2891 8.63285 27.8266 9.29379 27.8281 10.025C27.8297 10.7563 28.2937 11.4141 28.9812 11.661ZM36.2875 6.96098C37.0262 8.22772 38.0801 9.28169 39.3469 10.0204C38.0801 10.759 37.0262 11.813 36.2875 13.0797C35.5484 11.8133 34.4946 10.7594 33.2281 10.0204C34.4942 9.28084 35.548 8.22706 36.2875 6.96098ZM43.5922 38.3391L41.8281 37.7032C41.0767 37.4333 40.3942 37.0006 39.8296 36.436C39.2651 35.8714 38.8323 35.189 38.5625 34.4375L37.9266 32.6735C37.8036 32.3372 37.5803 32.0468 37.2868 31.8417C36.9934 31.6366 36.644 31.5265 36.2859 31.5265C35.9279 31.5265 35.5785 31.6366 35.285 31.8417C34.9916 32.0468 34.7683 32.3372 34.6453 32.6735L34.0094 34.4375C33.74 35.1893 33.3075 35.872 32.7428 36.4366C32.1782 37.0012 31.4955 37.4338 30.7437 37.7032L28.9812 38.3375C28.2922 38.5844 27.8281 39.2438 27.8266 39.975C27.825 40.7063 28.2859 41.3672 28.9797 41.6188L30.7437 42.2547C31.4956 42.5239 32.1784 42.9564 32.743 43.5211C33.3077 44.0857 33.7402 44.7685 34.0094 45.5204L34.6437 47.2829C34.7659 47.6202 34.9891 47.9118 35.2828 48.1179C35.5765 48.324 35.9266 48.4347 36.2854 48.4349C36.6442 48.435 36.9944 48.3247 37.2883 48.1189C37.5822 47.913 37.8056 47.6217 37.9281 47.2844L38.5641 45.5204C38.8339 44.7689 39.2666 44.0864 39.8312 43.5219C40.3958 42.9573 41.0782 42.5246 41.8297 42.2547L43.6016 41.6172C44.2875 41.3657 44.7484 40.7063 44.7469 39.975C44.7453 39.2438 44.2797 38.5875 43.5922 38.3391ZM36.2875 43.0391C35.5488 41.7724 34.4949 40.7184 33.2281 39.9797C34.4946 39.2407 35.5484 38.1868 36.2875 36.9204C37.0266 38.1868 38.0804 39.2407 39.3469 39.9797C38.0804 40.7188 37.0266 41.7727 36.2875 43.0391Z" fill="#2A9D90"/>
</svg>
