<svg width="50" height="50" viewBox="0 0 50 50" fill="none" xmlns="http://www.w3.org/2000/svg">
<g clip-path="url(#clip0_133_112)">
<path d="M49.1114 9.45587C48.4636 8.69005 47.5564 8.22228 46.5567 8.13878L11.3461 5.19875C10.3463 5.11526 9.37428 5.4261 8.60837 6.07385C7.84558 6.71906 7.37849 7.62169 7.29235 8.61651L6.58396 15.2626H3.75536C1.68466 15.2626 0 16.9472 0 19.0179V41.0591C0 43.1298 1.68466 44.8144 3.75536 44.8144H39.0885C41.1593 44.8144 42.844 43.1298 42.844 41.0591V37.4836L44.0978 37.5883C44.2035 37.5971 44.3087 37.6015 44.413 37.6015C46.3435 37.6015 47.9892 36.1162 48.1526 34.1584L49.9867 12.1937C50.0701 11.194 49.7593 10.2218 49.1114 9.45587ZM3.75536 17.2157H39.0885C40.0823 17.2157 40.8909 18.0242 40.8909 19.0179V21.0263H1.95312V19.0179C1.95312 18.0242 2.76161 17.2157 3.75536 17.2157ZM1.95312 22.9794H40.8909V27.0311H1.95312V22.9794ZM39.0885 42.8613H3.75536C2.76161 42.8613 1.95312 42.0528 1.95312 41.0591V28.9842H40.8909V41.0591C40.8909 42.0528 40.0823 42.8613 39.0885 42.8613ZM48.0403 12.0311L46.2063 33.9958C46.1236 34.9861 45.2504 35.7249 44.2603 35.6419L42.844 35.5236V19.0179C42.844 16.9472 41.1593 15.2626 39.0885 15.2626H8.54821L9.23561 8.81339C9.23639 8.80597 9.23707 8.79864 9.23766 8.79112C9.32037 7.80079 10.193 7.06212 11.1836 7.14513L46.3943 10.0852C46.874 10.1252 47.3095 10.3497 47.6203 10.7173C47.9312 11.0849 48.0804 11.5514 48.0403 12.0311Z" fill="#2A9D90"/>
<path d="M36.8039 31.8877H27.4053C26.8659 31.8877 26.4287 32.3249 26.4287 32.8643V38.996C26.4287 39.5353 26.8659 39.9725 27.4053 39.9725H36.8039C37.3432 39.9725 37.7804 39.5353 37.7804 38.996V32.8643C37.7804 32.3249 37.3432 31.8877 36.8039 31.8877ZM35.8273 38.0194H28.3818V33.8408H35.8273V38.0194Z" fill="#2A9D90"/>
</g>
<defs>
<clipPath id="clip0_133_112">
<rect width="50" height="50" fill="white"/>
</clipPath>
</defs>
</svg>
