<svg width="50" height="50" viewBox="0 0 50 50" fill="none" xmlns="http://www.w3.org/2000/svg">
<path fill-rule="evenodd" clip-rule="evenodd" d="M31.3203 18.6807C30.0704 17.4308 28.4778 16.5796 26.7441 16.2347C25.0104 15.8899 23.2134 16.0669 21.5803 16.7434C19.9472 17.4198 18.5514 18.5654 17.5693 20.0351C16.5873 21.5049 16.0631 23.2329 16.0631 25.0005C16.0631 26.7682 16.5873 28.4962 17.5693 29.9659C18.5514 31.4357 19.9472 32.5812 21.5803 33.2577C23.2134 33.9341 25.0104 34.1112 26.7441 33.7663C28.4778 33.4215 30.0704 32.5703 31.3203 31.3204C32.9962 29.6441 33.9377 27.3708 33.9377 25.0005C33.9377 22.6302 32.9962 20.3569 31.3203 18.6807ZM25 14.1319C27.1497 14.1319 29.2512 14.7694 31.0387 15.9637C32.8261 17.1581 34.2192 18.8557 35.0419 20.8418C35.8645 22.8279 36.0797 25.0134 35.6602 27.1218C35.2407 29.2303 34.2055 31.167 32.6853 32.687C31.1651 34.207 29.2283 35.2421 27.1198 35.6614C25.0114 36.0807 22.8259 35.8653 20.8399 35.0425C18.8538 34.2197 17.1563 32.8264 15.9621 31.0389C14.7679 29.2513 14.1306 27.1498 14.1308 25C14.1311 22.1175 15.2764 19.3532 17.3147 17.315C19.353 15.2769 22.1175 14.1319 25 14.1319ZM15.2129 5.39457C18.4467 4.49677 21.5742 3.25259 24.541 1.68363C24.6803 1.60818 24.836 1.56818 24.9944 1.56716C25.1528 1.56614 25.309 1.60413 25.4492 1.67777C28.4187 3.25032 31.5495 4.49715 34.7871 5.39652C38.0575 6.29985 41.4132 6.85984 44.7998 7.06742C44.9268 7.06678 45.0527 7.09127 45.1702 7.1395C45.2877 7.18772 45.3945 7.25872 45.4845 7.3484C45.5745 7.43809 45.6458 7.54468 45.6944 7.66205C45.7429 7.77942 45.7678 7.90524 45.7676 8.03227V20.003C45.6963 27.3526 43.9736 33.3008 40.5664 37.9961C37.1592 42.6914 32.083 46.1084 25.3096 48.3848C25.1113 48.4517 24.8965 48.4517 24.6982 48.3848C17.9248 46.1084 12.8515 42.6944 9.44139 37.9961C6.04393 33.3204 4.32225 27.4014 4.23729 20.0948C4.23536 20.0622 4.23536 20.0296 4.23729 19.9971V8.03227C4.23735 7.78665 4.33117 7.55031 4.4996 7.37154C4.66803 7.19276 4.89836 7.08503 5.14354 7.07035C8.54931 6.86506 11.9242 6.3034 15.2129 5.39457ZM25 3.61332C30.8935 6.65336 37.2383 8.40531 43.8369 8.92777V19.9961C43.7676 26.9219 42.165 32.4961 38.9971 36.8643C35.8799 41.1612 31.2236 44.3116 24.9961 46.4551C18.7685 44.3116 14.1123 41.1592 10.9951 36.8643C7.84178 32.5137 6.24022 26.961 6.16014 20.0684V8.92973C12.7617 8.40727 19.1064 6.65531 25 3.61332ZM28.4619 21.2891C28.6359 21.1021 28.8771 20.9919 29.1324 20.9827C29.3877 20.9736 29.6362 21.0662 29.8232 21.2403C30.0102 21.4143 30.1204 21.6555 30.1296 21.9108C30.1387 22.1661 30.0461 22.4146 29.8721 22.6016L24.1816 28.7217C24.0871 28.8242 23.9714 28.905 23.8425 28.9583C23.7137 29.0117 23.5748 29.0364 23.4354 29.0307C23.2961 29.025 23.1596 28.9891 23.0355 28.9255C22.9115 28.8619 22.8027 28.772 22.7168 28.6621L20.1172 25.7813C20.0325 25.6877 19.967 25.5783 19.9246 25.4594C19.8822 25.3405 19.8636 25.2144 19.8699 25.0883C19.8762 24.9622 19.9073 24.8386 19.9613 24.7245C20.0154 24.6104 20.0914 24.5081 20.185 24.4234C20.2787 24.3387 20.388 24.2732 20.507 24.2308C20.6259 24.1884 20.752 24.1698 20.8781 24.1761C21.0041 24.1824 21.1278 24.2135 21.2418 24.2675C21.3559 24.3216 21.4582 24.3976 21.543 24.4912L23.4814 26.6329L28.4619 21.2891Z" fill="#2A9D90"/>
</svg>
