<svg width="50" height="50" viewBox="0 0 50 50" fill="none" xmlns="http://www.w3.org/2000/svg">
<g clip-path="url(#clip0_133_14)">
<path d="M24.9711 0.00231934C24.0748 0.00231934 23.1792 0.0504998 22.2881 0.146548C21.4713 0.229977 20.6645 0.366802 19.8686 0.532826C19.7142 0.565162 19.5601 0.599092 19.4064 0.63461C14.7169 1.70231 10.435 4.09995 7.07388 7.54007C6.75973 7.86215 6.45373 8.19207 6.15616 8.52954C-2.92305 18.9528 -1.83346 34.7627 8.5899 43.8419C18.5689 52.5341 33.5899 51.9557 42.871 42.522C43.1854 42.2002 43.4914 41.8703 43.7887 41.5326C47.7955 36.9696 50.0035 31.1036 50 25.031C50 11.2079 38.7942 0.00221505 24.9711 0.00231934ZM8.186 8.79151C8.31782 8.65468 8.45464 8.5237 8.58896 8.39105C8.74414 8.23837 8.89849 8.08486 9.057 7.93719C9.19633 7.80704 9.33983 7.6819 9.48249 7.55508C9.64351 7.41242 9.8037 7.26975 9.96889 7.1321C10.1141 7.00945 10.2634 6.89182 10.4119 6.77335C10.5788 6.63986 10.7456 6.50638 10.9175 6.37789C11.0693 6.26395 11.2231 6.1527 11.3788 6.04418C11.5515 5.9207 11.7251 5.79389 11.9011 5.67875C12.0588 5.57244 12.2179 5.46814 12.3783 5.36589C12.5559 5.25139 12.7356 5.14013 12.9173 5.03218C13.2624 4.82615 13.6121 4.62782 13.966 4.43732C14.1329 4.34837 14.2997 4.26129 14.4666 4.17619C14.6569 4.08051 14.8486 3.98734 15.0414 3.8967C15.2083 3.81744 15.3818 3.73819 15.5537 3.6631C15.7497 3.57967 15.9483 3.49624 16.1468 3.41281C16.3195 3.3419 16.4914 3.27265 16.6658 3.20591C16.8677 3.12915 17.0721 3.0574 17.2765 2.98565C17.451 2.92399 17.6262 2.86419 17.8021 2.80628C18.0098 2.73954 18.2192 2.6778 18.4295 2.61689C18.6055 2.566 18.7799 2.51344 18.9567 2.46589C19.0243 2.44837 19.0919 2.43418 19.1595 2.41666C16.6899 4.81458 14.8573 7.79045 13.8275 11.075C11.8473 10.5527 9.93032 9.81497 8.11091 8.87494C8.13844 8.84574 8.16181 8.81654 8.186 8.79151ZM6.98628 10.1347C8.99037 11.2206 11.1155 12.0663 13.3177 12.6543C12.2381 16.4082 11.6715 20.2909 11.6333 24.1968H1.63011C1.81185 19.0462 3.69543 14.1011 6.98628 10.1347ZM6.98628 39.9274C3.69563 35.9609 1.81208 31.0159 1.63011 25.8653H11.6333C11.6715 29.7712 12.2381 33.6539 13.3177 37.4078C11.1156 37.996 8.99045 38.8417 6.98628 39.9274ZM18.9517 47.5995C18.7832 47.557 18.6088 47.5019 18.4353 47.451C18.2242 47.3893 18.0123 47.3276 17.8037 47.26C17.6277 47.2033 17.4542 47.1424 17.2806 47.0815C17.075 47.0111 16.8706 46.9374 16.6674 46.8604C16.4945 46.794 16.3223 46.7256 16.151 46.6551C15.9516 46.5717 15.7522 46.4883 15.5545 46.4048C15.3841 46.3297 15.2148 46.2524 15.0464 46.1729C14.852 46.0811 14.6585 45.9877 14.4624 45.8909C14.2955 45.8075 14.1287 45.7241 13.9618 45.6331C13.7733 45.5322 13.5864 45.4287 13.3995 45.3219C13.2326 45.2293 13.0741 45.1342 12.9131 45.0374C12.73 44.9271 12.5487 44.8139 12.3692 44.6979C12.2106 44.5969 12.0521 44.4943 11.8961 44.3892C11.7184 44.2682 11.5423 44.1447 11.368 44.0188C11.2153 43.9095 11.0626 43.8002 10.9125 43.685C10.7403 43.5544 10.5701 43.4212 10.4019 43.2854C10.2542 43.1678 10.1074 43.051 9.96305 42.93C9.79619 42.7915 9.63517 42.6472 9.47332 42.5037C9.33149 42.3777 9.18882 42.2534 9.05033 42.1249C8.89098 41.9764 8.73663 41.8221 8.58146 41.6694C8.44713 41.5367 8.31031 41.4057 8.17849 41.2698C8.1543 41.2439 8.13094 41.2172 8.10674 41.1922C9.92605 40.2517 11.843 39.5137 13.8233 38.9913C14.8534 42.2757 16.6859 45.2516 19.1553 47.6496C19.0877 47.6321 19.0193 47.6179 18.9517 47.5995ZM24.1369 48.3254C20.5669 47.8181 17.4375 44.0922 15.4686 38.59C18.3152 37.9526 21.22 37.6107 24.1369 37.5697V48.3254ZM24.1369 35.9011C21.0427 35.9418 17.9615 36.3092 14.9446 36.9973C13.897 33.3778 13.3445 29.6331 13.3019 25.8653H24.1369V35.9011ZM24.1369 24.1968H13.3019C13.3443 20.4289 13.8969 16.6842 14.9446 13.0648C17.9616 13.7528 21.0427 14.1202 24.1369 14.161V24.1968ZM24.1369 12.4924C21.22 12.4518 18.3151 12.1098 15.4686 11.4721C17.4375 5.96992 20.5669 2.24396 24.1369 1.73671V12.4924ZM42.9561 10.1347C46.2467 14.1012 48.1303 19.0462 48.3122 24.1968H38.309C38.2709 20.2909 37.7043 16.4082 36.6246 12.6543C38.8267 12.066 40.9519 11.2203 42.9561 10.1347ZM30.9839 2.46172C31.1591 2.5051 31.3335 2.56016 31.507 2.61105C31.7181 2.67279 31.93 2.73453 32.1386 2.80211C32.3146 2.85884 32.4882 2.91974 32.6617 2.98065C32.8669 3.05156 33.0722 3.12415 33.2749 3.20173C33.4484 3.26764 33.6195 3.33689 33.7913 3.40697C33.9907 3.4904 34.1901 3.57383 34.3879 3.65726C34.5581 3.73235 34.7274 3.80962 34.8959 3.88919C35.0903 3.98097 35.2839 4.07441 35.4799 4.17119C35.6468 4.25461 35.8137 4.33804 35.9805 4.42898C36.1691 4.52993 36.356 4.63338 36.5428 4.74017C36.7097 4.83278 36.8682 4.92789 37.0292 5.02467C37.2123 5.135 37.3937 5.2482 37.5732 5.36423C37.7317 5.46518 37.8902 5.56779 38.0462 5.67291C38.2237 5.79364 38.3995 5.91685 38.5735 6.04251C38.7275 6.15151 38.8799 6.26276 39.0307 6.37622C39.2026 6.50554 39.3711 6.63986 39.5405 6.77502C39.6873 6.89182 39.835 7.00862 39.9793 7.13043C40.1462 7.26892 40.3072 7.41325 40.469 7.55675C40.6109 7.68273 40.7535 7.80704 40.892 7.93552C41.0514 8.08403 41.2057 8.23837 41.3609 8.39105C41.4952 8.5237 41.632 8.65468 41.7639 8.79067C41.788 8.81654 41.8114 8.84323 41.8356 8.86826C40.0163 9.80873 38.0993 10.5468 36.119 11.0691C35.087 7.7843 33.2521 4.8087 30.7804 2.41166C30.8479 2.42918 30.9164 2.44336 30.9839 2.46172ZM25.8055 1.73671C29.3754 2.24396 32.5048 5.96992 34.4738 11.4721C31.6271 12.1095 28.7223 12.4514 25.8055 12.4924V1.73671ZM25.8055 14.161C28.8996 14.1203 31.9808 13.7529 34.9977 13.0648C36.0453 16.6843 36.5979 20.4289 36.6404 24.1968H25.8055V14.161ZM25.8055 25.8653H36.6404C36.598 29.6332 36.0454 33.3779 34.9977 36.9973C31.9808 36.3093 28.8996 35.9419 25.8055 35.9011V25.8653ZM25.8055 48.3254V37.5697C28.7224 37.6103 31.6272 37.9523 34.4738 38.59C32.5048 44.0922 29.3754 47.8181 25.8055 48.3254ZM41.7563 41.2706C41.6245 41.4066 41.4885 41.5376 41.3542 41.6702C41.199 41.8229 41.0439 41.9772 40.8845 42.1257C40.746 42.2551 40.6033 42.376 40.4615 42.5053C40.2997 42.6488 40.1386 42.7923 39.9735 42.9308C39.8275 43.0526 39.6789 43.1703 39.5304 43.2887C39.3636 43.4222 39.1967 43.5557 39.0249 43.6842C38.873 43.7981 38.7192 43.9094 38.5635 44.0179C38.3908 44.1414 38.2173 44.2682 38.0412 44.3833C37.8837 44.4897 37.7246 44.5937 37.564 44.6954C37.3862 44.8101 37.2063 44.9213 37.0242 45.0291C36.8574 45.1267 36.698 45.2218 36.5337 45.3161C36.1857 45.5142 35.8329 45.704 35.4758 45.8851C35.2854 45.9808 35.0938 46.0739 34.9009 46.1646C34.7341 46.2438 34.5606 46.3231 34.3887 46.3982C34.1926 46.4816 33.9941 46.565 33.7955 46.6485C33.6228 46.7185 33.4509 46.7886 33.2774 46.8545C33.0738 46.9321 32.8694 47.0047 32.6642 47.0756C32.4906 47.1374 32.3162 47.1969 32.1411 47.2542C31.9325 47.3217 31.724 47.3835 31.5112 47.4444C31.3368 47.4961 31.1616 47.5478 30.9856 47.5954C30.918 47.6129 30.8504 47.6271 30.7829 47.6446C33.2524 45.2467 35.085 42.2708 36.1148 38.9863C38.095 39.5085 40.012 40.2463 41.8314 41.1863C41.8039 41.2164 41.7805 41.2456 41.7563 41.2706ZM42.9561 39.9274C40.952 38.8415 38.8268 37.9958 36.6246 37.4078C37.7042 33.6539 38.2708 29.7712 38.309 25.8653H48.3122C48.1305 31.0159 46.2469 35.9611 42.9561 39.9274Z" fill="#2A9D90"/>
</g>
<defs>
<clipPath id="clip0_133_14">
<rect width="50" height="50" fill="white"/>
</clipPath>
</defs>
</svg>
