<svg width="50" height="50" viewBox="0 0 50 50" fill="none" xmlns="http://www.w3.org/2000/svg">
<g clip-path="url(#clip0_133_107)">
<path d="M42.6354 22.8635V10.2531C42.6354 7.25602 40.1811 4.78056 37.1838 4.78056H36.5048V3.92572C36.5048 1.78733 34.7712 0.053777 32.6329 0.053777C30.4945 0.053777 28.7609 1.78733 28.7609 3.92572V4.78056H14.5638V3.92572C14.5638 1.75765 12.8061 0 10.6381 0C8.47 0 6.71235 1.75765 6.71235 3.92572V4.78056H6.12564C3.12844 4.78056 0.689331 7.25602 0.689331 10.2531V39.2092C0.689331 42.2064 3.12844 44.6831 6.12564 44.6831H23.1831C24.5723 46.3448 26.3087 47.682 28.2702 48.6006C30.2317 49.5191 32.3706 49.9968 34.5366 50C42.6784 50 49.3107 43.3664 49.3107 35.2243C49.3109 30.0638 46.6149 25.5044 42.6354 22.8635ZM30.912 3.92572C30.8954 2.98892 31.6413 2.21604 32.5781 2.19948C32.5932 2.19926 32.6082 2.19916 32.6233 2.19926C33.5689 2.18926 34.3437 2.94773 34.3537 3.89345C34.3538 3.90421 34.3538 3.91496 34.3537 3.92572V8.11473H30.912V3.92572ZM8.86343 3.92572C8.87365 2.96193 9.66331 2.18894 10.6271 2.19916C10.6287 2.19914 10.6304 2.19917 10.632 2.19926C11.5994 2.19926 12.4127 2.95849 12.4127 3.92572V8.11473H8.86343V3.92572ZM2.84041 10.2531C2.84041 8.44202 4.31454 6.93164 6.12564 6.93164H6.71235V9.23501C6.71235 9.82892 7.20839 10.2658 7.80241 10.2658H13.4619C14.0558 10.2658 14.5638 9.82892 14.5638 9.23501V6.93164H28.7609V9.23501C28.757 9.37159 28.781 9.50754 28.8315 9.63449C28.882 9.76145 28.958 9.87673 29.0547 9.97327C29.1514 10.0698 29.2668 10.1456 29.3938 10.1959C29.5209 10.2462 29.6569 10.27 29.7934 10.2658H35.4529C35.5905 10.2704 35.7276 10.247 35.8559 10.1971C35.9842 10.1472 36.101 10.0718 36.1994 9.97543C36.2977 9.87907 36.3754 9.76378 36.4279 9.63652C36.4804 9.50925 36.5066 9.37267 36.5048 9.23501V6.93164H37.1838C39.0071 6.95003 40.4774 8.42976 40.4843 10.2531V13.7075H2.84041V10.2531ZM6.12564 42.532C4.31454 42.532 2.84041 41.0203 2.84041 39.2092V15.8586H40.4843V21.6938C38.6121 20.8718 36.5895 20.4478 34.5447 20.4486C26.4029 20.4486 19.7747 27.0919 19.7747 35.2339C19.7705 37.7918 20.4317 40.3068 21.6933 42.532H6.12564ZM34.5366 47.8298C27.5694 47.8298 21.9214 42.1818 21.9214 35.2147C21.9214 28.2475 27.5694 22.5996 34.5366 22.5996C41.5037 22.5996 47.1517 28.2475 47.1517 35.2147V35.2148C47.1438 42.1786 41.5005 47.8219 34.5366 47.8298Z" fill="#2A9D90"/>
<path d="M39.6034 35.2183H34.8915V28.7468C34.8915 28.1528 34.41 27.6713 33.816 27.6713C33.2219 27.6713 32.7404 28.1528 32.7404 28.7468V36.2928C32.7449 36.5802 32.8624 36.8543 33.0675 37.0558C33.2726 37.2573 33.5487 37.3699 33.8362 37.3694H39.6034C40.1975 37.3694 40.679 36.8879 40.679 36.2939C40.679 35.6998 40.1975 35.2183 39.6034 35.2183Z" fill="#2A9D90"/>
</g>
<defs>
<clipPath id="clip0_133_107">
<rect width="50" height="50" fill="white"/>
</clipPath>
</defs>
</svg>
