<svg width="50" height="50" viewBox="0 0 50 50" fill="none" xmlns="http://www.w3.org/2000/svg">
<path d="M8.33333 21.2209H19.1667C19.3877 21.2209 19.5996 21.1331 19.7559 20.9768C19.9122 20.8205 20 20.6085 20 20.3875C20 20.1665 19.9122 19.9546 19.7559 19.7983C19.5996 19.642 19.3877 19.5542 19.1667 19.5542H8.33333C8.11232 19.5542 7.90036 19.642 7.74408 19.7983C7.5878 19.9546 7.5 20.1665 7.5 20.3875C7.5 20.6085 7.5878 20.8205 7.74408 20.9768C7.90036 21.1331 8.11232 21.2209 8.33333 21.2209ZM30 24.5542H8.33333C8.11232 24.5542 7.90036 24.642 7.74408 24.7983C7.5878 24.9546 7.5 25.1665 7.5 25.3875C7.5 25.6085 7.5878 25.8205 7.74408 25.9768C7.90036 26.1331 8.11232 26.2209 8.33333 26.2209H30C30.221 26.2209 30.433 26.1331 30.5893 25.9768C30.7455 25.8205 30.8333 25.6085 30.8333 25.3875C30.8333 25.1665 30.7455 24.9546 30.5893 24.7983C30.433 24.642 30.221 24.5542 30 24.5542ZM30 29.5542H8.33333C8.11232 29.5542 7.90036 29.642 7.74408 29.7983C7.5878 29.9546 7.5 30.1665 7.5 30.3875C7.5 30.6085 7.5878 30.8205 7.74408 30.9768C7.90036 31.1331 8.11232 31.2209 8.33333 31.2209H30C30.221 31.2209 30.433 31.1331 30.5893 30.9768C30.7455 30.8205 30.8333 30.6085 30.8333 30.3875C30.8333 30.1665 30.7455 29.9546 30.5893 29.7983C30.433 29.642 30.221 29.5542 30 29.5542Z" fill="#2A9D90"/>
<path d="M45.06 2.11253L16.6083 2.0542C13.8833 2.0542 11.6667 4.27087 11.6667 6.99587V11.2659L4.94167 11.28C2.21667 11.28 0 13.4967 0 16.2217V33.8392C0 36.5642 2.21667 38.78 4.94167 38.78H10V47.1134C9.99993 47.2816 10.0508 47.4459 10.1459 47.5847C10.241 47.7235 10.3758 47.8302 10.5327 47.8909C10.6896 47.9516 10.8612 47.9634 11.0249 47.9247C11.1887 47.886 11.3368 47.7987 11.45 47.6742L19.5367 38.7784L33.3917 38.7217C36.1167 38.7217 38.3333 36.505 38.3333 33.7809V33.6867L42.7167 38.5084C42.8302 38.632 42.9783 38.7185 43.1418 38.7567C43.3052 38.7949 43.4764 38.7829 43.6329 38.7224C43.7894 38.6618 43.9241 38.5555 44.0193 38.4173C44.1145 38.2791 44.1659 38.1154 44.1667 37.9475V29.6142H45.0583C47.7833 29.6142 50 27.3975 50 24.6734V7.0542C49.9985 5.74435 49.4776 4.48857 48.5515 3.56221C47.6255 2.63585 46.3698 2.11452 45.06 2.11253ZM36.6667 33.78C36.6656 34.6488 36.3197 35.4816 35.705 36.0955C35.0903 36.7094 34.2571 37.0542 33.3883 37.0542L19.1633 37.1125C19.0478 37.113 18.9336 37.1374 18.828 37.1843C18.7224 37.2312 18.6278 37.2996 18.55 37.385L11.6667 44.9575V37.9459C11.6667 37.7248 11.5789 37.5129 11.4226 37.3566C11.2663 37.2003 11.0543 37.1125 10.8333 37.1125H4.94167C4.0735 37.1116 3.24113 36.7664 2.62716 36.1526C2.01319 35.5388 1.66777 34.7065 1.66667 33.8384V16.2209C1.66777 15.3523 2.0134 14.5197 2.6277 13.9057C3.242 13.2917 4.0748 12.9465 4.94333 12.9459L12.5 12.93H12.5017L33.3917 12.8867C34.26 12.8876 35.0925 13.2329 35.7065 13.8469C36.3205 14.4609 36.6658 15.2934 36.6667 16.1617V33.78ZM48.3333 24.6717C48.3322 25.5399 47.9868 26.3722 47.3728 26.986C46.7589 27.5998 45.9265 27.945 45.0583 27.9459H43.3333C43.1123 27.9459 42.9004 28.0337 42.7441 28.1899C42.5878 28.3462 42.5 28.5582 42.5 28.7792V35.7909L38.3333 31.2075V16.1625C38.3333 13.4375 36.1167 11.2209 33.39 11.2209L13.3333 11.2617V6.99503C13.3342 6.12701 13.6793 5.29476 14.2929 4.68082C14.9066 4.06688 15.7386 3.72136 16.6067 3.72003L45.0575 3.77837H45.0592C45.9275 3.77925 46.76 4.12458 47.374 4.73857C47.988 5.35256 48.3333 6.18505 48.3342 7.05337L48.3333 24.6717Z" fill="#2A9D90"/>
</svg>
