<svg width="30" height="30" viewBox="0 0 30 30" fill="none" xmlns="http://www.w3.org/2000/svg">
<g clip-path="url(#clip0_51_1060)">
<path fill-rule="evenodd" clip-rule="evenodd" d="M27.7207 10.0254C27.7207 8.50195 26.5195 7.25391 25.0488 7.25391H2.55469C1.08398 7.25391 -0.117188 8.50195 -0.117188 10.0254V25.0195C-0.117188 26.543 1.08398 27.791 2.55469 27.791H25.0488C26.5195 27.791 27.7207 26.543 27.7207 25.0195V10.0254Z" fill="#C47E4D"/>
<path fill-rule="evenodd" clip-rule="evenodd" d="M21.5098 6.81424C21.8496 6.74393 22.2773 6.67361 22.4883 6.40408C22.7578 6.05252 22.6523 5.2615 22.5996 4.86307C22.4766 3.99002 22.0723 2.91775 21.2402 2.49002C20.8477 2.28494 20.3379 2.19705 19.8984 2.20291C19.3359 2.20291 18.791 2.33182 18.2344 2.43143C15.7852 2.86502 13.3828 3.7908 11.0156 4.52322C8.52539 5.29666 6.04102 6.0701 3.55664 6.8494C2.83594 7.07205 2.11523 7.30057 1.39453 7.52908L21.5098 6.81424Z" fill="#A76A3F"/>
<path d="M25.0488 26.7656H24.7031V26.4727H25.0488C25.1543 26.4727 25.2656 26.4609 25.3652 26.4316L25.4414 26.7129C25.3125 26.748 25.1836 26.7656 25.0488 26.7656ZM24 26.7656H23.2969V26.4727H24V26.7656ZM22.5938 26.7656H21.8906V26.4727H22.5938V26.7656ZM21.1875 26.7656H20.4844V26.4727H21.1875V26.7656ZM19.7812 26.7656H19.0781V26.4727H19.7812V26.7656ZM18.375 26.7656H17.6719V26.4727H18.375V26.7656ZM16.9688 26.7656H16.2656V26.4727H16.9688V26.7656ZM15.5625 26.7656H14.8594V26.4727H15.5625V26.7656ZM14.1563 26.7656H13.4531V26.4727H14.1563V26.7656ZM12.75 26.7656H12.0469V26.4727H12.75V26.7656ZM11.3438 26.7656H10.6406V26.4727H11.3438V26.7656ZM9.9375 26.7656H9.23438V26.4727H9.9375V26.7656ZM8.53125 26.7656H7.82813V26.4727H8.53125V26.7656ZM7.125 26.7656H6.42188V26.4727H7.125V26.7656ZM5.71875 26.7656H5.01562V26.4727H5.71875V26.7656ZM4.3125 26.7656H3.60937V26.4727H4.3125V26.7656ZM2.90625 26.7656H2.54883C2.28516 26.7656 2.03906 26.7012 1.80469 26.5781L1.94531 26.3203C2.13281 26.4199 2.33789 26.4727 2.54883 26.4727H2.90625V26.7656ZM26.1152 26.3496L25.9219 26.1328C26.0801 25.9922 26.2031 25.8105 26.2852 25.6172L26.5547 25.7285C26.4551 25.9629 26.3027 26.1797 26.1152 26.3496ZM1.23633 26.0684C1.08984 25.8633 0.984375 25.623 0.9375 25.3711L1.22461 25.3125C1.26562 25.5234 1.35352 25.7227 1.47656 25.8984L1.23633 26.0684ZM26.6953 24.9844H26.4023V24.2812H26.6953V24.9844ZM1.19531 24.6445H0.902344V23.9414H1.19531V24.6445ZM26.6953 23.5781H26.4023V22.875H26.6953V23.5781ZM1.19531 23.2383H0.902344V22.5352H1.19531V23.2383ZM26.6953 22.1719H26.4023V21.4688H26.6953V22.1719ZM1.19531 21.832H0.902344V21.1289H1.19531V21.832ZM26.6953 20.7656H26.4023V20.0625H26.6953V20.7656ZM1.19531 20.4258H0.902344V19.7227H1.19531V20.4258ZM26.6953 19.3594H26.4023V18.6562H26.6953V19.3594ZM1.19531 19.0195H0.902344V18.3164H1.19531V19.0195ZM26.6953 17.9531H26.4023V17.25H26.6953V17.9531ZM1.19531 17.6133H0.902344V16.9102H1.19531V17.6133ZM26.6953 16.5469H26.4023V15.8438H26.6953V16.5469ZM1.19531 16.207H0.902344V15.5039H1.19531V16.207ZM26.6953 15.1406H26.4023V14.4375H26.6953V15.1406ZM1.19531 14.8008H0.902344V14.0977H1.19531V14.8008ZM26.6953 13.7344H26.4023V13.0312H26.6953V13.7344ZM1.19531 13.3945H0.902344V12.6914H1.19531V13.3945ZM26.6953 12.3281H26.4023V11.625H26.6953V12.3281ZM1.19531 11.9883H0.902344V11.2852H1.19531V11.9883ZM26.6953 10.9219H26.4023V10.2187H26.6953V10.9219ZM1.19531 10.582H0.902344V10.0254C0.902344 9.97266 0.902344 9.91992 0.908203 9.86719L1.20117 9.89063C1.19531 9.9375 1.19531 9.97852 1.19531 10.0254V10.582ZM26.3379 9.56836C26.2734 9.36328 26.168 9.16992 26.0273 9.01758L26.2441 8.82422C26.4141 9.01172 26.543 9.24023 26.6191 9.48633L26.3379 9.56836ZM1.38867 9.28125L1.13086 9.14063C1.25391 8.91211 1.42969 8.71875 1.64062 8.57227L1.81055 8.8125C1.64062 8.92969 1.49414 9.09375 1.38867 9.28125ZM25.5117 8.6543C25.3652 8.5957 25.207 8.56641 25.0547 8.56641H24.8789V8.27344H25.0547C25.248 8.27344 25.4414 8.30859 25.623 8.37891L25.5117 8.6543ZM2.39062 8.57812L2.35547 8.28516C2.41992 8.2793 2.49023 8.27344 2.55469 8.27344H3.07617V8.56641H2.55469C2.49609 8.56641 2.44336 8.57227 2.39062 8.57812ZM24.1699 8.56641H23.4668V8.27344H24.1699V8.56641ZM22.7637 8.56641H22.0605V8.27344H22.7637V8.56641ZM21.3574 8.56641H20.6543V8.27344H21.3574V8.56641ZM19.9512 8.56641H19.248V8.27344H19.9512V8.56641ZM18.5449 8.56641H17.8418V8.27344H18.5449V8.56641ZM17.1387 8.56641H16.4355V8.27344H17.1387V8.56641ZM15.7324 8.56641H15.0293V8.27344H15.7324V8.56641ZM14.3262 8.56641H13.623V8.27344H14.3262V8.56641ZM12.9199 8.56641H12.2168V8.27344H12.9199V8.56641ZM11.5137 8.56641H10.8105V8.27344H11.5137V8.56641ZM10.1074 8.56641H9.4043V8.27344H10.1074V8.56641ZM8.70117 8.56641H7.99805V8.27344H8.70117V8.56641ZM7.29492 8.56641H6.5918V8.27344H7.29492V8.56641ZM5.88867 8.56641H5.18555V8.27344H5.88867V8.56641ZM4.48242 8.56641H3.7793V8.27344H4.48242V8.56641Z" fill="#EFC75E"/>
<path fill-rule="evenodd" clip-rule="evenodd" d="M28.2656 15.1582H24.334C23.3086 15.1582 22.4707 16.084 22.4707 17.2207V17.8184C22.4707 18.9551 23.3086 19.8809 24.334 19.8809H28.2656C29.291 19.8809 30.1289 18.9551 30.1289 17.8184V17.2207C30.1289 16.084 29.291 15.1582 28.2656 15.1582Z" fill="#A76A3F"/>
<path fill-rule="evenodd" clip-rule="evenodd" d="M25.1074 18.9551C24.3457 18.9551 23.7246 18.3105 23.7246 17.5195C23.7246 16.7227 24.3457 16.084 25.1074 16.084C25.875 16.084 26.4902 16.7285 26.4902 17.5195C26.4902 18.3105 25.8691 18.9551 25.1074 18.9551Z" fill="#EFC75E"/>
</g>
<defs>
<clipPath id="clip0_51_1060">
<rect width="30" height="30" fill="white"/>
</clipPath>
</defs>
</svg>
