<svg width="30" height="30" viewBox="0 0 30 30" fill="none" xmlns="http://www.w3.org/2000/svg">
<path d="M26.25 9.375H11.25C10.7527 9.375 10.2758 9.57254 9.92417 9.92417C9.57254 10.2758 9.375 10.7527 9.375 11.25V22.5C9.375 22.9973 9.57254 23.4742 9.92417 23.8258C10.2758 24.1775 10.7527 24.375 11.25 24.375H22.5C22.646 24.3747 22.7876 24.4256 22.9 24.5187L26.0812 27.1375C26.2635 27.2881 26.4848 27.3838 26.7193 27.4137C26.9538 27.4436 27.192 27.4063 27.4062 27.3062C27.6211 27.2054 27.8028 27.0454 27.9301 26.8451C28.0573 26.6448 28.125 26.4123 28.125 26.175V11.25C28.125 10.7527 27.9275 10.2758 27.5758 9.92417C27.2242 9.57254 26.7473 9.375 26.25 9.375Z" fill="#FFCA3A"/>
<path d="M21.25 2.5H3.75C3.25272 2.5 2.77581 2.69754 2.42417 3.04917C2.07254 3.40081 1.875 3.87772 1.875 4.375V16.875C1.875 17.3723 2.07254 17.8492 2.42417 18.2008C2.77581 18.5525 3.25272 18.75 3.75 18.75H4.775C4.86528 18.75 4.95448 18.7695 5.03648 18.8073C5.11848 18.8451 5.19132 18.9001 5.25 18.9688C5.31021 19.0383 5.35431 19.1203 5.37916 19.2089C5.40401 19.2975 5.40899 19.3905 5.39375 19.4813L5.1625 20.8375C5.13228 21.018 5.14208 21.203 5.19122 21.3794C5.24035 21.5557 5.32762 21.7191 5.44685 21.858C5.56608 21.9969 5.71437 22.108 5.88123 22.1832C6.04809 22.2585 6.22946 22.2963 6.4125 22.2937C6.53544 22.2929 6.65759 22.274 6.775 22.2375C7.60108 21.9858 8.38788 21.6198 9.1125 21.15C10.0064 20.5683 10.7912 19.8343 11.4313 18.9813C11.4853 18.9142 11.5526 18.8591 11.629 18.8193C11.7053 18.7795 11.7891 18.7559 11.875 18.75H21.25C21.7473 18.75 22.2242 18.5525 22.5758 18.2008C22.9275 17.8492 23.125 17.3723 23.125 16.875V4.375C23.125 3.87772 22.9275 3.40081 22.5758 3.04917C22.2242 2.69754 21.7473 2.5 21.25 2.5Z" fill="#8BCAFF"/>
<path d="M13.125 14.375H6.875C6.70924 14.375 6.55027 14.3092 6.43306 14.1919C6.31585 14.0747 6.25 13.9158 6.25 13.75C6.25 13.5842 6.31585 13.4253 6.43306 13.3081C6.55027 13.1908 6.70924 13.125 6.875 13.125H13.125C13.2908 13.125 13.4497 13.1908 13.5669 13.3081C13.6842 13.4253 13.75 13.5842 13.75 13.75C13.75 13.9158 13.6842 14.0747 13.5669 14.1919C13.4497 14.3092 13.2908 14.375 13.125 14.375ZM18.125 11.25H6.875C6.70924 11.25 6.55027 11.1842 6.43306 11.0669C6.31585 10.9497 6.25 10.7908 6.25 10.625C6.25 10.4592 6.31585 10.3003 6.43306 10.1831C6.55027 10.0658 6.70924 10 6.875 10H18.125C18.2908 10 18.4497 10.0658 18.5669 10.1831C18.6842 10.3003 18.75 10.4592 18.75 10.625C18.75 10.7908 18.6842 10.9497 18.5669 11.0669C18.4497 11.1842 18.2908 11.25 18.125 11.25ZM18.125 8.125H6.875C6.70924 8.125 6.55027 8.05915 6.43306 7.94194C6.31585 7.82473 6.25 7.66576 6.25 7.5C6.25 7.33424 6.31585 7.17527 6.43306 7.05806C6.55027 6.94085 6.70924 6.875 6.875 6.875H18.125C18.2908 6.875 18.4497 6.94085 18.5669 7.05806C18.6842 7.17527 18.75 7.33424 18.75 7.5C18.75 7.66576 18.6842 7.82473 18.5669 7.94194C18.4497 8.05915 18.2908 8.125 18.125 8.125Z" fill="#F9F6F6"/>
</svg>
